<svg width="13" height="14" viewBox="0 0 13 14" fill="none" xmlns="http://www.w3.org/2000/svg">
<path d="M6.72519 3.32824C6.95617 3.0382 6.90981 2.61463 6.62161 2.38216C6.3335 2.14971 5.91274 2.19638 5.68185 2.48643L6.72519 3.32824ZM0.945817 9.51113L1.45218 9.95057C1.45741 9.94447 1.46251 9.93828 1.46751 9.932L0.945817 9.51113ZM0.793381 9.88623L0.126103 9.84235L0.125515 9.85509L0.793381 9.88623ZM0.66858 12.599L0.000713786 12.5678C-0.000819489 12.6012 0.000116522 12.6347 0.00353073 12.668L0.66858 12.599ZM1.37014 13.2155L1.392 13.8882C1.43659 13.8866 1.48091 13.8807 1.52433 13.8703L1.37014 13.2155ZM4.04446 12.5775L4.19868 13.2324L4.20902 13.2298L4.04446 12.5775ZM4.38766 12.3585L4.90345 12.7868L4.90924 12.7795L4.38766 12.3585ZM10.2935 6.02053C10.5245 5.7305 10.4782 5.30694 10.1902 5.0744C9.90219 4.84185 9.48135 4.88843 9.25037 5.17844L10.2935 6.02053ZM5.68462 2.48625C5.45365 2.77622 5.49982 3.1998 5.78794 3.43237C6.07596 3.66492 6.49672 3.61838 6.72778 3.32842L5.68462 2.48625ZM7.6218 1.13054L8.14339 1.55163C8.15212 1.5406 8.16059 1.52929 8.1687 1.51772L7.6218 1.13054ZM9.07396 0.843377L9.50167 0.326095C9.48037 0.308255 9.45799 0.291771 9.43472 0.276722L9.07396 0.843377ZM11.0681 2.51428L11.5413 2.03882C11.5268 2.02418 11.5116 2.01024 11.4958 1.997L11.0681 2.51428ZM11.0601 3.98418L10.5921 3.50351C10.5732 3.52221 10.5554 3.54203 10.5387 3.56285L11.0601 3.98418ZM9.25037 5.17844C9.01922 5.46829 9.06549 5.89158 9.35342 6.12427C9.64136 6.35696 10.0624 6.31038 10.2935 6.02053L9.25037 5.17844ZM6.86738 2.8076C6.81264 2.44 6.47229 2.18665 6.10716 2.24174C5.74194 2.29682 5.49028 2.63948 5.54502 3.00708L6.86738 2.8076ZM9.86199 6.26632C10.2278 6.21634 10.4841 5.87713 10.4345 5.50885C10.3847 5.14051 10.0479 4.8825 9.68192 4.93255L9.86199 6.26632ZM5.68185 2.48643L0.42412 9.09017L1.46751 9.932L6.72519 3.32824L5.68185 2.48643ZM0.439453 9.0716C0.254604 9.28741 0.144529 9.55797 0.126103 9.84235L1.46054 9.93002C1.46005 9.93756 1.45712 9.94483 1.45218 9.95057L0.439453 9.0716ZM0.125515 9.85509L0.000713786 12.5678L1.33645 12.6301L1.46125 9.91737L0.125515 9.85509ZM0.00353073 12.668C0.0763346 13.3786 0.682736 13.9115 1.392 13.8882L1.34828 12.5428C1.34543 12.5429 1.34403 12.5425 1.34312 12.5421C1.34185 12.5416 1.34016 12.5407 1.33844 12.5392C1.33671 12.5377 1.3356 12.5362 1.33497 12.535C1.33451 12.5341 1.33392 12.5328 1.33363 12.5299L0.00353073 12.668ZM1.52433 13.8703L4.19868 13.2324L3.89024 11.9225L1.21596 12.5606L1.52433 13.8703ZM4.20902 13.2298C4.48135 13.1601 4.72463 13.005 4.90345 12.7868L3.87188 11.9302C3.87402 11.9277 3.87678 11.9259 3.8799 11.9251L4.20902 13.2298ZM4.90924 12.7795L10.2935 6.02053L9.25037 5.17844L3.86608 11.9374L4.90924 12.7795ZM6.72778 3.32842L8.14339 1.55163L7.10022 0.709453L5.68462 2.48625L6.72778 3.32842ZM8.1687 1.51772C8.29226 1.34083 8.53232 1.29335 8.71319 1.41004L9.43472 0.276722C8.65088 -0.228911 7.61048 -0.02318 7.07491 0.743355L8.1687 1.51772ZM8.64625 1.36066L10.6404 3.03156L11.4958 1.997L9.50167 0.326095L8.64625 1.36066ZM10.5949 2.98976C10.6626 3.05804 10.7004 3.15074 10.6999 3.24722L12.037 3.25462C12.0395 2.79901 11.861 2.36129 11.5413 2.03882L10.5949 2.98976ZM10.6999 3.24722C10.6994 3.34371 10.6605 3.43597 10.5921 3.50351L11.5281 4.46486C11.8513 4.14594 12.0345 3.71022 12.037 3.25462L10.6999 3.24722ZM10.5387 3.56285L9.25037 5.17844L10.2935 6.02053L11.5815 4.40551L10.5387 3.56285ZM5.54502 3.00708C5.8564 5.09912 7.77968 6.55115 9.86199 6.26632L9.68192 4.93255C8.32435 5.11824 7.07045 4.17154 6.86738 2.8076L5.54502 3.00708Z" fill="#888888"/>
</svg>
