<svg width="17" height="12" viewBox="0 0 17 12" fill="none" xmlns="http://www.w3.org/2000/svg">
<path d="M6.07811 10.7552C5.87328 10.9435 5.71476 11.0696 5.55276 11.1618C4.75975 11.6127 3.78273 11.6127 2.98973 11.1618C2.69751 10.9956 2.41661 10.7188 1.8548 10.1655C1.293 9.61212 1.01209 9.33542 0.843381 9.04752C0.38554 8.26639 0.38554 7.30399 0.843381 6.52286C1.01209 6.23505 1.293 5.95834 1.8548 5.40494L4.27125 3.02467C4.83305 2.47127 5.11395 2.19457 5.40617 2.02839C6.19918 1.5774 7.17621 1.5774 7.96921 2.02838C8.26139 2.19457 8.5423 2.47127 9.10412 3.02467C9.66593 3.57807 9.94684 3.85476 10.1156 4.14261C10.5734 4.92374 10.5734 5.88614 10.1156 6.66727C10.022 6.82683 9.89404 6.98302 9.70275 7.18474M7.29727 4.81526C7.10598 5.01698 6.978 5.17317 6.88445 5.33273C6.42665 6.11386 6.42665 7.07626 6.88445 7.85739C7.05319 8.14529 7.33409 8.42199 7.89591 8.97532C8.45772 9.52872 8.73863 9.80543 9.03082 9.97163C9.82381 10.4226 10.8008 10.4226 11.5938 9.97163C11.8861 9.80543 12.167 9.52872 12.7288 8.97532L15.1453 6.59506C15.7071 6.04166 15.988 5.76495 16.1566 5.47714C16.6145 4.69601 16.6145 3.7336 16.1566 2.95247C15.988 2.66463 15.7071 2.38792 15.1453 1.83452C14.5834 1.28113 14.3025 1.00443 14.0103 0.838242C13.2173 0.387253 12.2403 0.387253 11.4473 0.838242C11.2853 0.930375 11.1268 1.05647 10.9219 1.24484" stroke="#9EFF40" stroke-linecap="round"/>
</svg>
