<svg width="28" height="28" viewBox="0 0 28 28" fill="none" xmlns="http://www.w3.org/2000/svg">
<path fill-rule="evenodd" clip-rule="evenodd" d="M5.91311 17.8913L14 28L22.0869 17.8913C23.649 15.9388 24.5 13.5127 24.5 11.0122V10.5C24.5 4.70101 19.799 0 14 0C8.20101 0 3.5 4.70101 3.5 10.5V11.0122C3.5 13.5127 4.35103 15.9388 5.91311 17.8913ZM14 14C15.933 14 17.5 12.433 17.5 10.5C17.5 8.567 15.933 7 14 7C12.067 7 10.5 8.567 10.5 10.5C10.5 12.433 12.067 14 14 14Z" fill="white" fill-opacity="0.5"/>
</svg>
