<svg width="14" height="14" viewBox="0 0 14 14" fill="none" xmlns="http://www.w3.org/2000/svg">
<path fill-rule="evenodd" clip-rule="evenodd" d="M9.625 7.4375H7.4375V9.625C7.4375 9.86563 7.24194 10.0625 7 10.0625C6.75806 10.0625 6.5625 9.86563 6.5625 9.625V7.4375H4.375C4.13306 7.4375 3.9375 7.24062 3.9375 7C3.9375 6.75938 4.13306 6.5625 4.375 6.5625H6.5625V4.375C6.5625 4.13438 6.75806 3.9375 7 3.9375C7.24194 3.9375 7.4375 4.13438 7.4375 4.375V6.5625H9.625C9.86694 6.5625 10.0625 6.75938 10.0625 7C10.0625 7.24062 9.86694 7.4375 9.625 7.4375ZM7 0C3.13381 0 0 3.1325 0 7C0 10.8675 3.13381 14 7 14C10.8662 14 14 10.8675 14 7C14 3.1325 10.8662 0 7 0Z" fill="#9EFF40"/>
</svg>
