<svg width="28" height="28" viewBox="0 0 28 28" fill="none" xmlns="http://www.w3.org/2000/svg">
<path d="M3.5 5.25H24.5C25.4665 5.25 26.25 6.0335 26.25 7C26.25 7.9665 25.4665 8.75 24.5 8.75H3.5C2.5335 8.75 1.75 7.9665 1.75 7C1.75 6.0335 2.5335 5.25 3.5 5.25Z" fill="white" fill-opacity="0.5"/>
<path d="M3.5 12.25H24.5C25.4665 12.25 26.25 13.0335 26.25 14C26.25 14.9665 25.4665 15.75 24.5 15.75H3.5C2.5335 15.75 1.75 14.9665 1.75 14C1.75 13.0335 2.5335 12.25 3.5 12.25Z" fill="white" fill-opacity="0.5"/>
<path d="M3.30556 19.25H14.1944C15.0536 19.25 15.75 20.0335 15.75 21C15.75 21.9665 15.0536 22.75 14.1944 22.75H3.30556C2.44645 22.75 1.75 21.9665 1.75 21C1.75 20.0335 2.44645 19.25 3.30556 19.25Z" fill="white" fill-opacity="0.5"/>
</svg>
