<svg width="28" height="28" viewBox="0 0 28 28" fill="none" xmlns="http://www.w3.org/2000/svg">
<path d="M26.8332 14C26.8332 21.0876 21.0875 26.8333 13.9998 26.8333C6.91219 26.8333 1.1665 21.0876 1.1665 14C1.1665 6.91235 6.91219 1.16667 13.9998 1.16667C21.0875 1.16667 26.8332 6.91235 26.8332 14ZM3.50781 14C3.50781 19.7946 8.20525 24.4921 13.9998 24.4921C19.7944 24.4921 24.4919 19.7946 24.4919 14C24.4919 8.20542 19.7944 3.50797 13.9998 3.50797C8.20525 3.50797 3.50781 8.20542 3.50781 14Z" fill="white" fill-opacity="0.5"/>
<path d="M14.0002 5.83333C13.3558 5.83333 12.8335 6.35566 12.8335 6.99999V14.5445C12.8335 14.5445 12.8335 14.8486 12.9813 15.0774C13.0802 15.2714 13.2345 15.44 13.4371 15.557L18.8269 18.6689C19.3849 18.991 20.0984 18.7998 20.4206 18.2418C20.7427 17.6837 20.5516 16.9702 19.9936 16.6481L15.1668 13.8614V6.99999C15.1668 6.35567 14.6445 5.83333 14.0002 5.83333Z" fill="white" fill-opacity="0.5"/>
</svg>
