<svg width="28" height="28" viewBox="0 0 28 28" fill="none" xmlns="http://www.w3.org/2000/svg">
<path d="M14 13.5651C15.17 13.5651 16.292 13.1004 17.1193 12.2731C17.9466 11.4458 18.4113 10.3238 18.4113 9.15381C18.4113 7.98385 17.9466 6.86182 17.1193 6.03454C16.292 5.20725 15.17 4.74249 14 4.74249C12.83 4.74249 11.708 5.20725 10.8807 6.03454C10.0534 6.86182 9.58869 7.98385 9.58869 9.15381C9.58869 10.3238 10.0534 11.4458 10.8807 12.2731C11.708 13.1004 12.83 13.5651 14 13.5651ZM14 15.5032C8.13487 15.5032 4.375 18.7399 4.375 20.3157V23.2584H23.625V20.3157C23.625 18.41 20.0655 15.5032 14 15.5032Z" fill="white" fill-opacity="0.5"/>
</svg>
