<svg width="21" height="19" viewBox="0 0 21 19" fill="none" xmlns="http://www.w3.org/2000/svg">
<path d="M12.1918 18.1337L12.7213 17.3244L11.4604 16.6492L10.9309 17.4586L12.1918 18.1337ZM8.27868 17.3244L8.80818 18.1337L10.069 17.4586L9.53947 16.6492L8.27868 17.3244ZM10.9309 17.4586C10.7427 17.7463 10.2573 17.7463 10.069 17.4586L8.80818 18.1337C9.56379 19.2888 11.4362 19.2888 12.1918 18.1337L10.9309 17.4586ZM9.03488 1.32558H11.9651V1.82095e-07H9.03488V1.32558ZM19.5349 8.17444V9.05816H21V8.17444H19.5349ZM1.46512 9.05816V8.17444H2.01262e-07V9.05816H1.46512ZM2.01262e-07 9.05816C2.01262e-07 10.0785 -0.000400296 10.877 0.0481634 11.5209C0.0971862 12.1709 0.198504 12.7118 0.427511 13.212L1.7811 12.7048C1.63836 12.393 1.55381 12.0132 1.50989 11.4307C1.46552 10.8423 1.46512 10.0966 1.46512 9.05816H2.01262e-07ZM6.40012 15.0159C5.17387 14.9967 4.53134 14.9262 4.02769 14.7374L3.46702 15.9621C4.25327 16.2567 5.14879 16.3221 6.37488 16.3412L6.40012 15.0159ZM0.427511 13.212C0.99753 14.4571 2.09088 15.4463 3.46702 15.9621L4.02769 14.7374C3.01054 14.3562 2.20242 13.6251 1.7811 12.7048L0.427511 13.212ZM19.5349 9.05816C19.5349 10.0966 19.5345 10.8423 19.4901 11.4307C19.4462 12.0132 19.3616 12.393 19.2189 12.7048L20.5725 13.212C20.8015 12.7118 20.9028 12.1709 20.9518 11.5209C21.0004 10.877 21 10.0785 21 9.05816H19.5349ZM14.6251 16.3412C15.8512 16.3221 16.7468 16.2567 17.5329 15.9621L16.9723 14.7374C16.4687 14.9262 15.8261 14.9967 14.5999 15.0159L14.6251 16.3412ZM19.2189 12.7048C18.7975 13.6251 17.9895 14.3562 16.9723 14.7374L17.5329 15.9621C18.9091 15.4463 20.0025 14.4571 20.5725 13.212L19.2189 12.7048ZM11.9651 1.32558C13.5779 1.32558 14.7361 1.32628 15.6395 1.404C16.5321 1.48078 17.1 1.62802 17.5527 1.87904L18.3183 0.748796C17.5965 0.348691 16.7779 0.170373 15.7782 0.0843692C14.7894 -0.000697996 13.5496 1.82095e-07 11.9651 1.82095e-07V1.32558ZM21 8.17444C21 6.74087 21.0008 5.61915 20.9067 4.72448C20.8117 3.81995 20.6146 3.07929 20.1724 2.42638L18.9231 3.11899C19.2006 3.52863 19.3634 4.04245 19.4482 4.84995C19.5341 5.66732 19.5349 6.7152 19.5349 8.17444H21ZM17.5527 1.87904C18.1113 2.18873 18.5809 2.61363 18.9231 3.11899L20.1724 2.42638C19.7093 1.74265 19.074 1.16779 18.3183 0.748796L17.5527 1.87904ZM9.03488 1.82095e-07C7.45042 1.82095e-07 6.21063 -0.000697996 5.22178 0.0843692C4.22203 0.170373 3.40342 0.348691 2.68178 0.748796L3.4473 1.87904C3.90005 1.62802 4.46796 1.48078 5.36046 1.404C6.26386 1.32628 7.42204 1.32558 9.03488 1.32558V1.82095e-07ZM1.46512 8.17444C1.46512 6.7152 1.46589 5.66732 1.55178 4.84995C1.63664 4.04245 1.79939 3.52863 2.07683 3.11899L0.827615 2.42638C0.385394 3.07929 0.188307 3.81995 0.0932499 4.72448C-0.000771468 5.61915 2.01262e-07 6.74087 2.01262e-07 8.17444H1.46512ZM2.68178 0.748796C1.92608 1.16779 1.29071 1.74265 0.827615 2.42638L2.07683 3.11899C2.41912 2.61363 2.88874 2.18873 3.4473 1.87904L2.68178 0.748796ZM9.53947 16.6492C9.34119 16.346 9.16714 16.0785 8.99786 15.8684C8.81951 15.6471 8.61508 15.4478 8.33149 15.2986L7.59489 16.4445C7.6412 16.4688 7.70428 16.5132 7.81381 16.6492C7.93235 16.7964 8.0663 16.9997 8.27868 17.3244L9.53947 16.6492ZM6.37488 16.3412C6.80376 16.3479 7.07541 16.3529 7.28249 16.3735C7.47599 16.393 7.55099 16.4213 7.59489 16.4445L8.33149 15.2986C8.04554 15.1481 7.74798 15.0865 7.44374 15.056C7.15308 15.0269 6.8018 15.0221 6.40012 15.0159L6.37488 16.3412ZM12.7213 17.3244C12.9337 16.9997 13.0676 16.7964 13.1861 16.6492C13.2956 16.5132 13.3587 16.4688 13.405 16.4445L12.6685 15.2986C12.3849 15.4478 12.1804 15.6471 12.0021 15.8684C11.8329 16.0785 11.6588 16.346 11.4604 16.6492L12.7213 17.3244ZM14.5999 15.0159C14.1981 15.0221 13.8469 15.0269 13.5562 15.056C13.252 15.0865 12.9545 15.1481 12.6685 15.2986L13.405 16.4445C13.449 16.4213 13.524 16.393 13.7175 16.3735C13.9246 16.3529 14.1962 16.3479 14.6251 16.3412L14.5999 15.0159Z" fill="white"/>
</svg>
