<svg width="25" height="22" viewBox="0 0 25 22" fill="none" xmlns="http://www.w3.org/2000/svg">
<path d="M2 7.0625C2 5.48995 2 4.70367 2.26642 4.08344C2.62165 3.25648 3.30302 2.59945 4.16061 2.25691C4.8038 2 5.61921 2 7.25 2H17.75C19.3808 2 20.1961 2 20.8394 2.25691C21.6969 2.59945 22.3784 3.25648 22.7335 4.08344C23 4.70367 23 5.48995 23 7.0625V7.90625C23 8.37224 22.6082 8.75 22.125 8.75H21.8333C20.5446 8.75 19.5 9.75733 19.5 11C19.5 12.2427 20.5446 13.25 21.8333 13.25H22.125C22.6082 13.25 23 13.6278 23 14.0938V14.9375C23 16.51 23 17.2963 22.7335 17.9166C22.3784 18.7435 21.6969 19.4006 20.8394 19.7431C20.1961 20 19.3808 20 17.75 20H7.25C5.61921 20 4.8038 20 4.16061 19.7431C3.30302 19.4006 2.62165 18.7435 2.26642 17.9166C2 17.2963 2 16.51 2 14.9375V14.0938C2 13.6278 2.39175 13.25 2.875 13.25H3.16667C4.45533 13.25 5.5 12.2427 5.5 11C5.5 9.75733 4.45533 8.75 3.16667 8.75H2.875C2.39175 8.75 2 8.37224 2 7.90625V7.0625Z" stroke="white" stroke-width="2.5"/>
</svg>
