<svg width="23" height="23" viewBox="0 0 23 23" fill="none" xmlns="http://www.w3.org/2000/svg">
<path d="M12.2188 8.625C12.2188 8.22805 11.8969 7.90625 11.5 7.90625C11.1031 7.90625 10.7812 8.22805 10.7812 8.625V10.7812H8.625C8.22805 10.7812 7.90625 11.1031 7.90625 11.5C7.90625 11.8969 8.22805 12.2188 8.625 12.2188H10.7812V14.375C10.7812 14.7719 11.1031 15.0938 11.5 15.0938C11.8969 15.0938 12.2188 14.7719 12.2188 14.375V12.2188H14.375C14.7719 12.2188 15.0938 11.8969 15.0938 11.5C15.0938 11.1031 14.7719 10.7812 14.375 10.7812H12.2188V8.625Z" fill="white"/>
<path fill-rule="evenodd" clip-rule="evenodd" d="M11.5 1.19791C5.81028 1.19791 1.19788 5.81032 1.19788 11.5C1.19788 17.1897 5.81028 21.8021 11.5 21.8021C17.1897 21.8021 21.802 17.1897 21.802 11.5C21.802 5.81032 17.1897 1.19791 11.5 1.19791ZM2.63538 11.5C2.63538 6.60423 6.60419 2.63541 11.5 2.63541C16.3957 2.63541 20.3645 6.60423 20.3645 11.5C20.3645 16.3957 16.3957 20.3646 11.5 20.3646C6.60419 20.3646 2.63538 16.3957 2.63538 11.5Z" fill="white"/>
</svg>
