<svg width="23" height="25" viewBox="0 0 23 25" fill="none" xmlns="http://www.w3.org/2000/svg">
<path fill-rule="evenodd" clip-rule="evenodd" d="M11.6232 0C5.35206 0 0.267578 4.89766 0.267578 10.9375C0.267578 14.2172 1.76959 17.1556 4.14383 19.1594C4.38054 19.3592 4.52594 19.6494 4.52594 19.9591V23.1295C4.52594 23.9286 5.41688 24.4049 6.08137 23.9611L9.16418 21.9019C9.37986 21.7579 9.6428 21.7051 9.89931 21.7434C10.4616 21.8276 11.0366 21.875 11.6232 21.875C17.8944 21.875 22.9788 16.9781 22.9788 10.9375C22.9788 4.89766 17.8944 0 11.6232 0Z" fill="url(#paint0_linear_45_42)"/>
<path d="M11.623 0.5C17.6359 0.5 22.4785 5.1913 22.4785 10.9375C22.4785 16.6845 17.6359 21.375 11.623 21.375C11.0636 21.375 10.5136 21.3298 9.97363 21.249C9.60249 21.1935 9.2125 21.2688 8.88672 21.4863L5.80371 23.5449C5.47157 23.7668 5.02665 23.5292 5.02637 23.1299V19.959C5.02633 19.4907 4.80682 19.0645 4.4668 18.7773C2.19705 16.8618 0.767578 14.0596 0.767578 10.9375C0.767578 5.19135 5.61028 0.500086 11.623 0.5Z" stroke="white" stroke-opacity="0.3"/>
<defs>
<linearGradient id="paint0_linear_45_42" x1="4.35561" y1="2" x2="19.0103" y2="17.6084" gradientUnits="userSpaceOnUse">
<stop stop-color="#7AA7FF"/>
<stop offset="1" stop-color="#0057FF"/>
</linearGradient>
</defs>
</svg>
