<svg width="24" height="22" viewBox="0 0 24 22" fill="none" xmlns="http://www.w3.org/2000/svg">
<path d="M0.316895 7.31524C0.316895 13.3939 4.88121 16.6331 8.22238 19.5325C9.4014 20.5556 10.537 21.5189 11.6725 21.5189C12.8081 21.5189 13.9437 20.5556 15.1227 19.5325C18.4639 16.6331 23.0282 13.3939 23.0282 7.31524C23.0282 1.23656 16.7823 -3.07431 11.6725 2.76965C6.56267 -3.07431 0.316895 1.23656 0.316895 7.31524Z" fill="url(#paint0_linear_45_39)"/>
<path d="M15.7222 0.645508C16.9049 0.352853 18.0429 0.516116 19.0415 1.01855C21.0496 2.02894 22.5278 4.43738 22.5278 7.31543C22.5277 13.1174 18.2024 16.1988 14.7954 19.1553C14.2011 19.671 13.6488 20.1432 13.1108 20.4893C12.5714 20.8362 12.1005 21.0186 11.6724 21.0186C11.2442 21.0185 10.7733 20.8362 10.2339 20.4893C9.69605 20.1433 9.14448 19.6709 8.55029 19.1553C5.14328 16.1988 0.81699 13.1174 0.816895 7.31543C0.816895 4.43747 2.29528 2.029 4.30322 1.01855C5.30181 0.516099 6.43978 0.352849 7.62256 0.645508C8.80802 0.938898 10.0722 1.69853 11.2964 3.09863L11.6724 3.5293L12.0493 3.09863C13.2734 1.69881 14.5369 0.938932 15.7222 0.645508Z" stroke="url(#paint1_linear_45_39)" stroke-opacity="0.3"/>
<defs>
<linearGradient id="paint0_linear_45_39" x1="6.02555" y1="-4.67559e-07" x2="19.022" y2="20.4362" gradientUnits="userSpaceOnUse">
<stop stop-color="#FF8B8B"/>
<stop offset="1" stop-color="#FF0000"/>
</linearGradient>
<linearGradient id="paint1_linear_45_39" x1="11.6725" y1="0" x2="11.6725" y2="21.5189" gradientUnits="userSpaceOnUse">
<stop stop-color="white"/>
<stop offset="1" stop-color="#999999"/>
</linearGradient>
</defs>
</svg>
