<svg width="19" height="22" viewBox="0 0 19 22" fill="none" xmlns="http://www.w3.org/2000/svg">
<mask id="path-1-inside-1_45_44" fill="white">
<path d="M18.6835 11.1344C18.6831 12.0649 17.6147 12.6525 15.4794 13.8278L5.53601 19.3004C2.50096 20.9709 0.983226 21.8062 0.28601 21.0387C-0.410962 20.2711 0.347614 18.6003 1.86511 15.2594L3.05554 12.6403L11.1327 12.6403C11.8881 12.6401 12.5009 11.965 12.5009 11.1334C12.5006 10.3021 11.8879 9.62778 11.1327 9.62758L3.05554 9.62758L1.86511 7.00843C0.347587 3.66753 -0.411051 1.99668 0.286011 1.22914C0.983225 0.461662 2.50099 1.29698 5.53601 2.96742L15.4794 8.44008C17.615 9.61552 18.6835 10.2037 18.6835 11.1344Z"/>
</mask>
<path d="M18.6835 11.1344C18.6831 12.0649 17.6147 12.6525 15.4794 13.8278L5.53601 19.3004C2.50096 20.9709 0.983226 21.8062 0.28601 21.0387C-0.410962 20.2711 0.347614 18.6003 1.86511 15.2594L3.05554 12.6403L11.1327 12.6403C11.8881 12.6401 12.5009 11.965 12.5009 11.1334C12.5006 10.3021 11.8879 9.62778 11.1327 9.62758L3.05554 9.62758L1.86511 7.00843C0.347587 3.66753 -0.411051 1.99668 0.286011 1.22914C0.983225 0.461662 2.50099 1.29698 5.53601 2.96742L15.4794 8.44008C17.615 9.61552 18.6835 10.2037 18.6835 11.1344Z" fill="url(#paint0_linear_45_44)"/>
<path d="M18.6835 11.1344L19.6835 11.1348L19.6835 11.1344L18.6835 11.1344ZM15.4794 13.8278L15.9615 14.7038L15.9615 14.7038L15.4794 13.8278ZM5.53601 19.3004L5.05383 18.4244L5.05383 18.4244L5.53601 19.3004ZM0.28601 21.0387L-0.454326 21.7109L-0.454165 21.7111L0.28601 21.0387ZM1.86511 15.2594L0.954734 14.8456L0.954635 14.8459L1.86511 15.2594ZM3.05554 12.6403L3.05554 11.6403L2.41161 11.6403L2.14516 12.2265L3.05554 12.6403ZM11.1327 12.6403L11.1327 13.6403L11.1329 13.6403L11.1327 12.6403ZM12.5009 11.1334L13.5009 11.1334L13.5009 11.1331L12.5009 11.1334ZM11.1327 9.62758L11.133 8.62758L11.1327 8.62758L11.1327 9.62758ZM3.05554 9.62758L2.14516 10.0414L2.41161 10.6276L3.05554 10.6276L3.05554 9.62758ZM1.86511 7.00843L0.954635 7.422L0.954735 7.42221L1.86511 7.00843ZM0.286011 1.22914L-0.454164 0.556724L-0.454269 0.556838L0.286011 1.22914ZM5.53601 2.96742L5.05383 3.84349L5.05383 3.84349L5.53601 2.96742ZM15.4794 8.44008L15.9615 7.564L15.9615 7.564L15.4794 8.44008ZM18.6835 11.1344L17.6835 11.1341C17.6835 11.1562 17.6825 11.1794 17.646 11.2353C17.5979 11.3089 17.4935 11.4268 17.273 11.5962C16.8141 11.9486 16.0955 12.3472 14.9972 12.9517L15.4794 13.8278L15.9615 14.7038C16.9986 14.1331 17.8819 13.6502 18.4911 13.1824C19.1119 12.7057 19.6831 12.0679 19.6835 11.1348L18.6835 11.1344ZM15.4794 13.8278L14.9972 12.9517L5.05383 18.4244L5.53601 19.3004L6.01819 20.1765L15.9615 14.7038L15.4794 13.8278ZM5.53601 19.3004L5.05383 18.4244C3.50606 19.2762 2.44282 19.8586 1.67888 20.1491C1.29834 20.2938 1.0872 20.3271 0.985873 20.3259C0.931207 20.3252 0.985858 20.3219 1.02619 20.3663L0.28601 21.0387L-0.454165 21.7111C-0.0652303 22.1393 0.440593 22.3194 0.961438 22.3257C1.43562 22.3315 1.92434 22.1955 2.38976 22.0185C3.31775 21.6656 4.53091 20.9951 6.01819 20.1765L5.53601 19.3004ZM0.28601 21.0387L1.02635 20.3665C1.09019 20.4368 0.901965 20.3609 1.19927 19.4134C1.46854 18.5552 2.00468 17.3702 2.77559 15.673L1.86511 15.2594L0.954635 14.8459C0.208051 16.4895 -0.393853 17.8103 -0.708998 18.8147C-0.996115 19.7297 -1.21515 20.8731 -0.454326 21.7109L0.28601 21.0387ZM1.86511 15.2594L2.77549 15.6732L3.96592 13.054L3.05554 12.6403L2.14516 12.2265L0.954734 14.8456L1.86511 15.2594ZM3.05554 12.6403L3.05554 13.6403L11.1327 13.6403L11.1327 12.6403L11.1327 11.6403L3.05554 11.6403L3.05554 12.6403ZM11.1327 12.6403L11.1329 13.6403C12.5291 13.64 13.5009 12.4243 13.5009 11.1334L12.5009 11.1334L11.5009 11.1334C11.5009 11.3032 11.4385 11.4396 11.3597 11.5265C11.2822 11.6118 11.2007 11.6403 11.1325 11.6403L11.1327 12.6403ZM12.5009 11.1334L13.5009 11.1331C13.5005 9.8421 12.5283 8.62796 11.133 8.62758L11.1327 9.62758L11.1324 10.6276C11.2476 10.6276 11.5007 10.7621 11.5009 11.1337L12.5009 11.1334ZM11.1327 9.62758L11.1327 8.62758L3.05554 8.62758L3.05554 9.62758L3.05554 10.6276L11.1327 10.6276L11.1327 9.62758ZM3.05554 9.62758L3.96592 9.2138L2.77549 6.59466L1.86511 7.00843L0.954735 7.42221L2.14516 10.0414L3.05554 9.62758ZM1.86511 7.00843L2.77559 6.59487C2.00466 4.89763 1.4685 3.71256 1.19922 2.85438C0.901909 1.90688 1.09017 1.83109 1.02629 1.90144L0.286011 1.22914L-0.454269 0.556838C-1.21521 1.39473 -0.996161 2.53814 -0.70904 3.45317C-0.393885 4.45753 0.208042 5.77833 0.954635 7.422L1.86511 7.00843ZM0.286011 1.22914L1.02619 1.90155C0.985853 1.94595 0.931198 1.94265 0.985872 1.94199C1.08721 1.94075 1.29835 1.97405 1.67889 2.11876C2.44284 2.40927 3.50608 2.99163 5.05383 3.84349L5.53601 2.96742L6.01819 2.09135C4.53092 1.27277 3.31777 0.602253 2.38977 0.249362C1.92435 0.0723726 1.43563 -0.063657 0.961447 -0.0578656C0.440605 -0.0515042 -0.0652256 0.128589 -0.454164 0.556724L0.286011 1.22914ZM5.53601 2.96742L5.05383 3.84349L14.9972 9.31615L15.4794 8.44008L15.9615 7.564L6.01819 2.09134L5.53601 2.96742ZM15.4794 8.44008L14.9972 9.31615C16.0955 9.92067 16.8142 10.3195 17.2731 10.672C17.4936 10.8414 17.5979 10.9594 17.646 11.033C17.6825 11.0889 17.6835 11.1122 17.6835 11.1344L18.6835 11.1344L19.6835 11.1344C19.6835 10.2012 19.1124 9.56302 18.4915 9.08603C17.8822 8.61793 16.9989 8.13493 15.9615 7.564L15.4794 8.44008Z" fill="white" fill-opacity="0.5" mask="url(#path-1-inside-1_45_44)"/>
<defs>
<linearGradient id="paint0_linear_45_44" x1="18.6835" y1="11.1339" x2="0.0251861" y2="11.1339" gradientUnits="userSpaceOnUse">
<stop stop-color="#FFEFD7"/>
<stop offset="1" stop-color="#FFC061"/>
</linearGradient>
</defs>
</svg>
