<svg width="212" height="51" viewBox="0 0 212 51" fill="none" xmlns="http://www.w3.org/2000/svg">
<path d="M0.453896 0.127209C0.286439 0.184818 0.146137 0.336695 0.0691977 0.540943C-0.0167937 0.781851 -0.0258454 9.48597 0.060146 9.67451C0.0918271 9.73736 2.61273 12.6806 5.66317 16.2209L11.2073 22.6469L11.23 35.237L11.2526 47.8323L11.3476 47.9789C11.3974 48.0575 11.5106 48.1675 11.5966 48.2198C11.7414 48.3036 12.0537 48.3089 16.7198 48.2984L21.6892 48.2827L21.8703 48.0627L22.0468 47.8428L22.0377 32.2832L22.0242 16.7289L14.8733 8.45426C9.17523 1.8607 7.69075 0.169106 7.56403 0.127209C7.37394 0.0643636 0.630405 0.0643636 0.453896 0.127209Z" fill="#9EFF40"/>
<path d="M36.009 5.46908C35.7375 5.62095 26.3327 16.5299 26.2377 16.8022C26.1743 16.9855 26.1653 18.4572 26.1653 32.2832C26.1653 47.1934 26.1653 47.5704 26.2513 47.8009C26.3056 47.9475 26.3961 48.0732 26.4957 48.1465L26.6496 48.2565H36.3304H46.0112L48.4914 45.3865C49.8582 43.8102 51.0123 42.4328 51.0621 42.3281C51.1662 42.0872 51.1707 41.8881 51.0711 41.6525C50.9625 41.3958 46.2058 35.9073 46.0112 35.8131C45.8799 35.7502 45.192 35.7397 41.4672 35.7397C37.5116 35.7397 37.0817 35.7293 37.0545 35.6559C37.0409 35.6088 37.0274 28.9 37.0274 20.7458V5.91423L36.9187 5.7257C36.7151 5.37481 36.3485 5.2753 36.009 5.46908Z" fill="#9EFF40"/>
<path d="M49.9307 45.5908C49.4329 45.8998 49.1704 46.5492 49.2926 47.1619C49.4374 47.8899 49.8402 48.2565 50.4919 48.2565C51.2342 48.2565 51.6913 47.7275 51.6913 46.8687C51.6913 46.2454 51.4695 45.8212 51.0169 45.5856C50.7544 45.4442 50.157 45.4494 49.9307 45.5908ZM50.7544 45.8527C51.0033 45.9312 51.2704 46.2297 51.3337 46.4968C51.4107 46.8268 51.3609 47.2824 51.216 47.5233C50.9128 48.0313 50.1842 48.0732 49.8221 47.6019C49.641 47.3609 49.6003 47.2038 49.6184 46.7901C49.6275 46.4497 49.6501 46.3607 49.7587 46.1983C49.9805 45.8631 50.3697 45.727 50.7544 45.8527Z" fill="#9EFF40"/>
<path d="M50.1615 46.2245C50.1027 46.2926 50.0846 47.23 50.1344 47.3871C50.1932 47.5704 50.3335 47.4447 50.3335 47.2038C50.3335 47.0362 50.5055 47.0886 50.691 47.3138C50.9445 47.6228 51.0486 47.5757 50.8947 47.2143C50.8359 47.0781 50.8359 47.0205 50.8766 46.8634C50.949 46.612 50.8992 46.3502 50.7635 46.2454C50.6322 46.1459 50.2385 46.1354 50.1615 46.2245ZM50.6322 46.4968C50.7499 46.6016 50.6684 46.7587 50.4738 46.7796C50.3471 46.7953 50.3335 46.7849 50.3335 46.6434C50.3335 46.5597 50.3471 46.4759 50.3652 46.4601C50.415 46.4025 50.5372 46.4183 50.6322 46.4968Z" fill="#9EFF40"/>
<path d="M61.728 25.368V29.048C61.728 30.648 62.4 31.384 64.256 31.384C65.44 31.384 66.336 31.256 67.456 31L68.032 34.84C66.464 35.192 65.344 35.32 64.256 35.32C59.2 35.32 57.12 33.432 57.12 28.984V25.432C57.12 20.984 59.2 19.096 64.256 19.096C65.344 19.096 66.464 19.224 68.032 19.576L67.456 23.416C66.496 23.192 65.152 23.032 64.256 23.032C62.4 23.032 61.728 23.768 61.728 25.368ZM77.2263 35.32C71.6903 35.32 70.1863 32.216 70.1863 29.016V25.4C70.1863 22.2 71.6903 19.096 77.2263 19.096C82.7623 19.096 84.2663 22.2 84.2663 25.4V29.016C84.2663 32.216 82.7623 35.32 77.2263 35.32ZM77.2263 31.448C78.8903 31.448 79.6583 30.616 79.6583 29.144V25.272C79.6583 23.8 78.8903 22.968 77.2263 22.968C75.5623 22.968 74.7943 23.8 74.7943 25.272V29.144C74.7943 30.616 75.5623 31.448 77.2263 31.448ZM101.307 35H96.6993V24.696C96.6993 23.992 96.3793 23.576 95.5793 23.576C94.7473 23.576 93.2113 24.152 92.2193 24.696V35H87.6113V19.416H91.0353L91.5153 20.6C93.4353 19.672 95.9313 19.096 97.7233 19.096C99.0993 19.096 100.027 19.64 100.571 20.6C102.331 19.736 104.667 19.096 106.811 19.096C109.467 19.096 110.395 21.08 110.395 24.088V35H105.787V24.696C105.787 23.992 105.467 23.576 104.667 23.576C103.835 23.576 102.299 24.152 101.307 24.696V35ZM128.089 35H123.481V24.696C123.481 23.992 123.161 23.576 122.361 23.576C121.529 23.576 119.993 24.152 119.001 24.696V35H114.393V19.416H117.817L118.297 20.6C120.217 19.672 122.713 19.096 124.505 19.096C125.881 19.096 126.809 19.64 127.353 20.6C129.113 19.736 131.449 19.096 133.593 19.096C136.249 19.096 137.177 21.08 137.177 24.088V35H132.569V24.696C132.569 23.992 132.249 23.576 131.449 23.576C130.617 23.576 129.081 24.152 128.089 24.696V35ZM141.014 19.416H145.622V29.72C145.622 30.424 145.942 30.84 146.742 30.84C147.574 30.84 149.11 30.264 150.102 29.72V19.416H154.71V35H151.286L150.806 33.816C148.886 34.744 146.39 35.32 144.598 35.32C141.942 35.32 141.014 33.336 141.014 30.328V19.416ZM172.557 35H167.949V24.696C167.949 23.992 167.629 23.576 166.829 23.576C165.997 23.576 164.461 24.152 163.469 24.696V35H158.861V19.416H162.285L162.765 20.6C164.685 19.672 167.181 19.096 168.973 19.096C171.629 19.096 172.557 21.08 172.557 24.088V35ZM181.157 17.464H176.549V12.568H181.157V17.464ZM181.157 35H176.549V19.416H181.157V35ZM193.874 34.744C192.85 35.096 191.602 35.32 190.546 35.32C187.57 35.32 185.842 34.2 185.842 31.32V23.128H183.73V19.416H185.842V15.672L190.45 15.032V19.416H194.002L193.746 23.128H190.45V30.68C190.45 31.32 190.834 31.544 191.41 31.544C191.922 31.544 192.658 31.48 193.33 31.256L193.874 34.744ZM204.21 41.304H199.858L201.682 35H200.21L195.41 19.416H200.082L203.25 30.456L206.418 19.416H211.09L206.194 35L204.21 41.304Z" fill="#9EFF40"/>
</svg>
